# xmcd
#
# Track frame offsets:
#	150
#	26402
#	69767
#	91107
#	104447
#	139240
#	155132
#
# Disc length: 2747 seconds
#
# Revision: 1
# Processed by: cddbd v1.5.1PL0 Copyright (c) Steve Scherf et al.
# Submitted via: CDex 1.50Beta5
#
DISCID=530ab907
DTITLE=上海太郎舞踏公司B - 聴くな- Bravissimo
DYEAR=1900
DGENRE=Pop
TTITLE0=交響曲　第5番「朝ごはん」
TTITLE1=Hitomi's Adventure In Wonderland〜不思議の国のヒトミ〜
TTITLE2=愛と麻雀のボレロ
TTITLE3=高い声のタコ焼屋のおばちゃん
TTITLE4=雪子
TTITLE5=風呂屋で
TTITLE6=データ トラック
EXTD=
EXTT0=
EXTT1=
EXTT2=
EXTT3=
EXTT4=
EXTT5=
EXTT6=
PLAYORDER=
